<svg xmlns="http://www.w3.org/2000/svg" viewBox="0 0 64 64" fill="none">
  <rect width="64" height="64" rx="12" fill="#24292e"/>
  <path d="M32 12c-9.94 0-18 8.06-18 18 0 7.96 5.16 14.7 12.32 17.08.9.18 1.23-.38 1.23-.86 0-.42-.01-1.53-.02-3-5.01 1.09-6.06-2.41-6.06-2.41-.82-2.09-2-2.65-2-2.65-1.64-1.13.12-1.1.12-1.1 1.82.13 2.78 1.87 2.78 1.87 1.61 2.76 4.22 1.96 5.25 1.5.16-1.17.63-1.96 1.14-2.41-4-0.45-8.21-2-8.21-8.92 0-1.97.7-3.58 1.86-4.85-.19-.46-.81-2.3.18-4.8 0 0 1.51-.48 4.95 1.85 1.44-.4 2.98-.6 4.52-.61 1.53 0 3.08.21 4.52.61 3.44-2.33 4.95-1.85 4.95-1.85.99 2.5.37 4.34.18 4.8 1.16 1.27 1.86 2.88 1.86 4.85 0 6.94-4.22 8.46-8.23 8.9.65.56 1.22 1.67 1.22 3.37 0 2.43-.02 4.39-.02 4.99 0 .48.32 1.05 1.24.85C44.84 44.7 50 37.96 50 30c0-9.94-8.06-18-18-18z" fill="#f6f8fa"/>
</svg>
